<?xml version="1.0" standalone="no"?><!DOCTYPE svg PUBLIC "-//W3C//DTD SVG 1.1//EN" "http://www.w3.org/Graphics/SVG/1.1/DTD/svg11.dtd"><svg t="1706091217104" class="icon" viewBox="0 0 1024 1024" version="1.1" xmlns="http://www.w3.org/2000/svg" p-id="43826" xmlns:xlink="http://www.w3.org/1999/xlink" width="200" height="200"><path d="M92.902 582.088a426.767 426.767 0 1 0 853.535 0 426.767 426.767 0 1 0-853.535 0z" fill="#B800FE" p-id="43827"></path><path d="M144.236 582.088a375.434 375.434 0 1 0 750.868 0 375.434 375.434 0 1 0-750.868 0z" fill="#3B0025" p-id="43828"></path><path d="M518.886 205.87c207.78 0 376.218 168.438 376.218 376.218S726.666 958.305 518.886 958.305V205.87z" fill="#4E377F" p-id="43829"></path><path d="M521.964 203.5c-24.92-52.045 21.242-126.014 103.111-165.213 81.869-39.203 168.433-28.79 193.357 23.25L521.964 203.5z" fill="#30C03F" p-id="43830"></path><path d="M521.964 203.5c24.919 52.044 111.488 62.453 193.356 23.25 81.87-39.204 128.031-113.173 103.112-165.213L521.964 203.5z" fill="#97CF43" p-id="43831"></path><path d="M348.068 96.573c19.24-29.03 71.859-28.032 117.524 2.238 45.666 30.264 67.093 78.336 47.852 107.366L348.068 96.573z" fill="#30C03F" p-id="43832"></path><path d="M348.068 96.573c-19.241 29.03 2.181 77.097 47.851 107.367 45.666 30.264 98.284 31.268 117.525 2.232L348.068 96.573z" fill="#97CF43" p-id="43833"></path><path d="M482.447 538.179c4.076-1.629 0-41.851-11.955-45.113-11.955-3.261-19.266 5.827-19.84 10.87-1.362 11.96 24.725 37.069 31.795 34.243z m1.05 85.923c-3.82-2.165-32.676 26.148-27.75 37.52 4.925 11.371 16.583 11.402 20.879 8.699 10.184-6.405 13.496-42.466 6.871-46.219z m-27.648-24.524c-1.7-4.05-41.846 0.716-44.897 12.728s6.154 19.164 11.207 19.65c11.976 1.152 36.634-25.359 33.69-32.378z m-0.292-37.878c1.464-4.137-31.447-27.612-41.79-20.777-10.337 6.835-8.33 18.32-4.92 22.077 8.09 8.91 44.17 5.878 46.71-1.3z" fill="#FFFFFF" p-id="43834"></path></svg>